<svg width="512" height="512" viewBox="0 0 512 512" fill="none" xmlns="http://www.w3.org/2000/svg">
<g clip-path="url(#clip0_5_2)">
<path d="M257.177 55.2092V17.3634C257.177 16.7209 256.656 16.2 256.013 16.2C255.371 16.2 254.85 16.7209 254.85 17.3634V55.2092C254.85 55.8517 255.371 56.3726 256.013 56.3726C256.656 56.3726 257.177 55.8517 257.177 55.2092Z" fill="#222222"/>
<path d="M156.745 81.433L137.822 48.6576C137.501 48.1012 136.789 47.9105 136.233 48.2318C135.676 48.553 135.486 49.2646 135.807 49.821L154.73 82.5964C155.051 83.1529 155.763 83.3435 156.319 83.0222C156.876 82.701 157.066 81.9894 156.745 81.433Z" fill="#222222"/>
<path d="M82.6496 154.463L49.8742 135.541C49.3178 135.219 48.6062 135.41 48.285 135.966C47.9637 136.523 48.1543 137.234 48.7108 137.556L81.4862 156.479C82.0426 156.8 82.7541 156.609 83.0754 156.053C83.3967 155.496 83.206 154.785 82.6496 154.463Z" fill="#222222"/>
<path d="M55.0092 254.781H17.1634C16.5209 254.781 16 255.302 16 255.944C16 256.587 16.5209 257.107 17.1634 257.107H55.0092C55.6517 257.107 56.1726 256.587 56.1726 255.944C56.1726 255.302 55.6517 254.781 55.0092 254.781Z" fill="#222222"/>
<path d="M81.23 355.471L48.4546 374.394C47.8982 374.715 47.7075 375.427 48.0288 375.983C48.3501 376.54 49.0616 376.73 49.618 376.409L82.3934 357.486C82.9498 357.165 83.1405 356.453 82.8192 355.897C82.498 355.34 81.7864 355.15 81.23 355.471Z" fill="#222222"/>
<path d="M154.273 429.557L135.35 462.333C135.029 462.889 135.219 463.601 135.776 463.922C136.332 464.243 137.044 464.053 137.365 463.496L156.288 430.721C156.609 430.164 156.419 429.453 155.862 429.131C155.306 428.81 154.594 429.001 154.273 429.557Z" fill="#222222"/>
<path d="M254.773 457.191V495.037C254.773 495.679 255.294 496.2 255.937 496.2C256.579 496.2 257.1 495.679 257.1 495.037V457.191C257.1 456.548 256.579 456.027 255.937 456.027C255.294 456.027 254.773 456.548 254.773 457.191Z" fill="#222222"/>
<path d="M355.258 430.982L374.181 463.757C374.502 464.314 375.214 464.504 375.77 464.183C376.327 463.862 376.517 463.15 376.196 462.594L357.273 429.818C356.952 429.262 356.24 429.071 355.684 429.392C355.127 429.714 354.937 430.425 355.258 430.982Z" fill="#222222"/>
<path d="M429.358 357.938L462.133 376.861C462.69 377.182 463.401 376.991 463.723 376.435C464.044 375.878 463.853 375.167 463.297 374.846L430.521 355.923C429.965 355.601 429.253 355.792 428.932 356.349C428.611 356.905 428.801 357.617 429.358 357.938Z" fill="#222222"/>
<path d="M456.991 257.027H494.837C495.479 257.027 496 256.506 496 255.863C496 255.221 495.479 254.7 494.837 254.7H456.991C456.348 254.7 455.827 255.221 455.827 255.863C455.827 256.506 456.348 257.027 456.991 257.027Z" fill="#222222"/>
<path d="M430.773 156.936L463.548 138.013C464.105 137.692 464.295 136.98 463.974 136.424C463.653 135.868 462.941 135.677 462.385 135.998L429.609 154.921C429.053 155.242 428.862 155.954 429.184 156.51C429.505 157.067 430.216 157.257 430.773 156.936Z" fill="#222222"/>
<path d="M357.72 82.8532L376.643 50.0778C376.964 49.5214 376.773 48.8098 376.217 48.4886C375.66 48.1673 374.949 48.358 374.627 48.9144L355.705 81.6898C355.383 82.2462 355.574 82.9578 356.13 83.279C356.687 83.6003 357.398 83.4097 357.72 82.8532Z" fill="#222222"/>
<path d="M234.146 34.7393L232.442 18.5292C232.375 17.8902 231.802 17.4266 231.163 17.4938C230.524 17.5609 230.061 18.1334 230.128 18.7724L231.832 34.9825C231.899 35.6215 232.471 36.0851 233.11 36.0179C233.749 35.9508 234.213 35.3783 234.146 34.7393Z" fill="#222222"/>
<path d="M212.801 38.0608L209.377 22.0823C209.243 21.454 208.624 21.0539 207.996 21.1885C207.368 21.3231 206.967 21.9416 207.102 22.5698L210.526 38.5483C210.661 39.1766 211.279 39.5768 211.907 39.4421C212.536 39.3075 212.936 38.6891 212.801 38.0608Z" fill="#222222"/>
<path d="M188.588 44.1081L183.551 28.6064C183.353 27.9953 182.696 27.6609 182.085 27.8595C181.474 28.058 181.14 28.7144 181.338 29.3255L186.375 44.8271C186.574 45.4382 187.23 45.7726 187.841 45.5741C188.452 45.3755 188.787 44.7192 188.588 44.1081Z" fill="#222222"/>
<path d="M166.783 52.3259L160.153 37.4357C159.892 36.8487 159.204 36.5847 158.617 36.8461C158.03 37.1074 157.766 37.7951 158.027 38.3821L164.657 53.2723C164.918 53.8593 165.606 54.1233 166.193 53.862C166.78 53.6006 167.044 52.9129 166.783 52.3259Z" fill="#222222"/>
<path d="M126.343 75.3323L116.763 62.1458C116.385 61.626 115.658 61.5107 115.138 61.8884C114.618 62.2661 114.503 62.9936 114.881 63.5135L124.461 76.6999C124.839 77.2198 125.566 77.335 126.086 76.9573C126.606 76.5797 126.721 75.8521 126.343 75.3323Z" fill="#222222"/>
<path d="M108.159 89.8711L97.2523 77.7583C96.8224 77.2808 96.0867 77.2422 95.6092 77.6721C95.1317 78.1021 95.0932 78.8377 95.5231 79.3152L106.43 91.428C106.859 91.9055 107.595 91.9441 108.073 91.5141C108.55 91.0842 108.589 90.3486 108.159 89.8711Z" fill="#222222"/>
<path d="M91.58 106.232L79.4672 95.326C78.9897 94.896 78.2541 94.9346 77.8242 95.4121C77.3942 95.8896 77.4328 96.6252 77.9103 97.0551L90.0231 107.962C90.5006 108.392 91.2362 108.353 91.6661 107.875C92.0961 107.398 92.0575 106.662 91.58 106.232Z" fill="#222222"/>
<path d="M76.7972 124.253L63.6107 114.672C63.0909 114.295 62.3633 114.41 61.9856 114.93C61.608 115.449 61.7232 116.177 62.243 116.555L75.4295 126.135C75.9493 126.513 76.6769 126.398 77.0546 125.878C77.4322 125.358 77.317 124.63 76.7972 124.253Z" fill="#222222"/>
<path d="M53.2855 164.39L38.3952 157.761C37.8082 157.499 37.1205 157.763 36.8592 158.35C36.5979 158.937 36.8618 159.625 37.4488 159.886L52.3391 166.516C52.9261 166.777 53.6138 166.513 53.8751 165.926C54.1364 165.339 53.8725 164.652 53.2855 164.39Z" fill="#222222"/>
<path d="M44.7995 186.079L29.2978 181.042C28.6867 180.843 28.0304 181.178 27.8318 181.789C27.6333 182.4 27.9677 183.056 28.5788 183.255L44.0804 188.292C44.6915 188.49 45.3479 188.156 45.5464 187.545C45.745 186.934 45.4106 186.277 44.7995 186.079Z" fill="#222222"/>
<path d="M38.6196 208.535L22.6764 205.147C22.0479 205.013 21.4301 205.414 21.2965 206.043C21.1629 206.671 21.5641 207.289 22.1926 207.423L38.1358 210.811C38.7643 210.945 39.3821 210.544 39.5157 209.915C39.6493 209.287 39.2481 208.669 38.6196 208.535Z" fill="#222222"/>
<path d="M34.8259 231.521L18.6158 229.817C17.9768 229.75 17.4043 230.214 17.3372 230.853C17.27 231.492 17.7336 232.064 18.3726 232.131L34.5827 233.835C35.2217 233.902 35.7942 233.439 35.8613 232.8C35.9285 232.161 35.4649 231.588 34.8259 231.521Z" fill="#222222"/>
<path d="M34.5319 278.051L18.3217 279.755C17.6827 279.822 17.2192 280.395 17.2863 281.034C17.3535 281.673 17.926 282.136 18.565 282.069L34.7751 280.366C35.4141 280.298 35.8777 279.726 35.8105 279.087C35.7433 278.448 35.1709 277.984 34.5319 278.051Z" fill="#222222"/>
<path d="M38.027 301.074L22.0838 304.462C21.4553 304.596 21.0541 305.214 21.1877 305.842C21.3213 306.471 21.9391 306.872 22.5675 306.738L38.5108 303.35C39.1393 303.216 39.5405 302.598 39.4069 301.97C39.2733 301.341 38.6555 300.94 38.027 301.074Z" fill="#222222"/>
<path d="M43.9181 323.609L28.4164 328.646C27.8053 328.844 27.4709 329.501 27.6695 330.112C27.868 330.723 28.5244 331.057 29.1354 330.859L44.6371 325.822C45.2482 325.623 45.5826 324.967 45.3841 324.356C45.1855 323.745 44.5292 323.41 43.9181 323.609Z" fill="#222222"/>
<path d="M52.1211 345.423L37.2309 352.053C36.6439 352.314 36.3799 353.002 36.6413 353.589C36.9026 354.176 37.5903 354.44 38.1773 354.178L53.0675 347.549C53.6545 347.287 53.9185 346.6 53.6572 346.013C53.3958 345.426 52.7081 345.162 52.1211 345.423Z" fill="#222222"/>
<path d="M75.1241 385.866L61.9376 395.446C61.4178 395.824 61.3026 396.551 61.6803 397.071C62.0579 397.591 62.7855 397.706 63.3053 397.329L76.4918 387.748C77.0116 387.37 77.1269 386.643 76.7492 386.123C76.3715 385.603 75.6439 385.488 75.1241 385.866Z" fill="#222222"/>
<path d="M89.6705 404.046L77.5577 414.953C77.0802 415.383 77.0416 416.118 77.4716 416.596C77.9015 417.073 78.6371 417.112 79.1146 416.682L91.2275 405.775C91.705 405.346 91.7435 404.61 91.3136 404.132C90.8836 403.655 90.148 403.616 89.6705 404.046Z" fill="#222222"/>
<path d="M106.047 420.629L95.141 432.741C94.7111 433.219 94.7497 433.955 95.2272 434.384C95.7046 434.814 96.4403 434.776 96.8702 434.298L107.777 422.186C108.207 421.708 108.168 420.972 107.691 420.542C107.213 420.113 106.477 420.151 106.047 420.629Z" fill="#222222"/>
<path d="M124.037 435.405L114.457 448.592C114.079 449.111 114.194 449.839 114.714 450.217C115.234 450.594 115.961 450.479 116.339 449.959L125.92 436.773C126.297 436.253 126.182 435.525 125.662 435.148C125.142 434.77 124.415 434.885 124.037 435.405Z" fill="#222222"/>
<path d="M164.184 458.918L157.554 473.808C157.293 474.395 157.557 475.083 158.144 475.344C158.731 475.605 159.419 475.341 159.68 474.754L166.31 459.864C166.571 459.277 166.307 458.589 165.72 458.328C165.133 458.067 164.445 458.331 164.184 458.918Z" fill="#222222"/>
<path d="M185.88 467.406L180.844 482.908C180.645 483.519 180.98 484.175 181.591 484.374C182.202 484.572 182.858 484.238 183.057 483.627L188.093 468.125C188.292 467.514 187.958 466.858 187.346 466.659C186.735 466.461 186.079 466.795 185.88 467.406Z" fill="#222222"/>
<path d="M208.34 473.574L204.951 489.518C204.817 490.146 205.218 490.764 205.847 490.898C206.475 491.031 207.093 490.63 207.227 490.001L210.616 474.058C210.749 473.43 210.348 472.812 209.72 472.678C209.091 472.545 208.473 472.946 208.34 473.574Z" fill="#222222"/>
<path d="M229.53 483.422L227.901 499.547C227.837 500.186 228.303 500.757 228.942 500.822C229.581 500.886 230.152 500.42 230.216 499.781L231.845 483.656C231.91 483.017 231.444 482.446 230.805 482.382C230.165 482.317 229.595 482.783 229.53 483.422Z" fill="#222222"/>
<path d="M277.847 477.672L279.551 493.882C279.618 494.521 280.191 494.985 280.83 494.918C281.469 494.851 281.932 494.278 281.865 493.639L280.161 477.429C280.094 476.79 279.522 476.326 278.883 476.394C278.244 476.461 277.78 477.033 277.847 477.672Z" fill="#222222"/>
<path d="M300.879 474.167L304.268 490.11C304.402 490.739 305.02 491.14 305.648 491.006C306.276 490.873 306.678 490.255 306.544 489.626L303.155 473.683C303.022 473.055 302.404 472.653 301.775 472.787C301.147 472.921 300.746 473.538 300.879 474.167Z" fill="#222222"/>
<path d="M323.422 468.281L328.458 483.783C328.657 484.394 329.313 484.728 329.924 484.53C330.536 484.331 330.87 483.675 330.671 483.064L325.635 467.562C325.436 466.951 324.78 466.617 324.169 466.815C323.558 467.014 323.223 467.67 323.422 468.281Z" fill="#222222"/>
<path d="M345.217 460.078L351.847 474.968C352.108 475.555 352.796 475.819 353.383 475.558C353.97 475.296 354.234 474.609 353.973 474.022L347.343 459.131C347.082 458.544 346.394 458.28 345.807 458.542C345.22 458.803 344.956 459.491 345.217 460.078Z" fill="#222222"/>
<path d="M385.653 437.074L395.233 450.26C395.611 450.78 396.338 450.895 396.858 450.517C397.378 450.14 397.493 449.412 397.116 448.892L387.535 435.706C387.158 435.186 386.43 435.071 385.91 435.449C385.39 435.826 385.275 436.554 385.653 437.074Z" fill="#222222"/>
<path d="M403.855 422.533L414.761 434.646C415.191 435.123 415.927 435.162 416.404 434.732C416.882 434.302 416.92 433.567 416.49 433.089L405.584 420.976C405.154 420.499 404.418 420.46 403.941 420.89C403.463 421.32 403.425 422.056 403.855 422.533Z" fill="#222222"/>
<path d="M420.434 406.163L432.547 417.07C433.024 417.5 433.76 417.461 434.19 416.984C434.62 416.506 434.581 415.771 434.104 415.341L421.991 404.434C421.513 404.004 420.778 404.043 420.348 404.52C419.918 404.998 419.956 405.733 420.434 406.163Z" fill="#222222"/>
<path d="M435.2 388.154L448.386 397.734C448.906 398.112 449.634 397.997 450.011 397.477C450.389 396.957 450.274 396.23 449.754 395.852L436.567 386.271C436.048 385.894 435.32 386.009 434.942 386.529C434.565 387.049 434.68 387.776 435.2 388.154Z" fill="#222222"/>
<path d="M458.717 348.014L473.607 354.643C474.194 354.905 474.882 354.641 475.143 354.054C475.405 353.467 475.141 352.779 474.554 352.518L459.663 345.888C459.076 345.627 458.389 345.891 458.127 346.478C457.866 347.065 458.13 347.753 458.717 348.014Z" fill="#222222"/>
<path d="M467.251 324.866L482.734 329.919C483.344 330.118 484.001 329.784 484.2 329.174C484.4 328.563 484.066 327.906 483.455 327.707L467.973 322.654C467.362 322.455 466.705 322.789 466.506 323.4C466.306 324.01 466.64 324.667 467.251 324.866Z" fill="#222222"/>
<path d="M473.382 303.866L489.325 307.255C489.954 307.389 490.571 306.987 490.705 306.359C490.838 305.731 490.437 305.113 489.809 304.979L473.866 301.59C473.237 301.457 472.619 301.858 472.486 302.486C472.352 303.115 472.753 303.733 473.382 303.866Z" fill="#222222"/>
<path d="M477.172 280.882L493.382 282.586C494.021 282.653 494.594 282.189 494.661 281.55C494.728 280.911 494.264 280.339 493.625 280.272L477.415 278.568C476.776 278.501 476.204 278.964 476.137 279.603C476.069 280.242 476.533 280.815 477.172 280.882Z" fill="#222222"/>
<path d="M477.465 234.35L493.675 232.646C494.314 232.579 494.777 232.006 494.71 231.367C494.643 230.728 494.071 230.265 493.432 230.332L477.222 232.036C476.583 232.103 476.119 232.675 476.186 233.314C476.253 233.953 476.826 234.417 477.465 234.35Z" fill="#222222"/>
<path d="M473.97 211.316L489.914 207.927C490.542 207.793 490.943 207.175 490.81 206.547C490.676 205.918 490.058 205.517 489.43 205.651L473.487 209.04C472.858 209.173 472.457 209.791 472.59 210.419C472.724 211.048 473.342 211.449 473.97 211.316Z" fill="#222222"/>
<path d="M468.091 188.775L483.593 183.739C484.204 183.54 484.538 182.884 484.34 182.273C484.141 181.661 483.485 181.327 482.874 181.526L467.372 186.562C466.761 186.761 466.427 187.417 466.625 188.028C466.824 188.639 467.48 188.974 468.091 188.775Z" fill="#222222"/>
<path d="M459.873 166.989L474.763 160.359C475.35 160.098 475.614 159.41 475.353 158.823C475.092 158.236 474.404 157.972 473.817 158.233L458.927 164.863C458.34 165.124 458.076 165.812 458.337 166.399C458.598 166.986 459.286 167.25 459.873 166.989Z" fill="#222222"/>
<path d="M436.865 126.545L450.052 116.964C450.572 116.587 450.687 115.859 450.309 115.339C449.932 114.819 449.204 114.704 448.684 115.082L435.498 124.662C434.978 125.04 434.863 125.768 435.24 126.287C435.618 126.807 436.346 126.922 436.865 126.545Z" fill="#222222"/>
<path d="M422.333 108.35L434.445 97.4439C434.923 97.014 434.961 96.2784 434.532 95.8009C434.102 95.3234 433.366 95.2848 432.888 95.7148L420.776 106.621C420.298 107.051 420.26 107.787 420.69 108.264C421.119 108.742 421.855 108.78 422.333 108.35Z" fill="#222222"/>
<path d="M405.967 91.7748L416.873 79.662C417.303 79.1845 417.265 78.4489 416.787 78.019C416.31 77.589 415.574 77.6276 415.144 78.1051L404.238 90.2179C403.808 90.6954 403.846 91.431 404.324 91.8609C404.801 92.2909 405.537 92.2523 405.967 91.7748Z" fill="#222222"/>
<path d="M387.95 77.0026L397.53 63.8161C397.908 63.2963 397.793 62.5687 397.273 62.191C396.753 61.8134 396.026 61.9286 395.648 62.4484L386.067 75.6349C385.69 76.1547 385.805 76.8823 386.325 77.26C386.845 77.6376 387.572 77.5224 387.95 77.0026Z" fill="#222222"/>
<path d="M347.818 53.4793L354.448 38.5891C354.709 38.0021 354.445 37.3144 353.858 37.053C353.271 36.7917 352.584 37.0557 352.322 37.6427L345.693 52.5329C345.431 53.1199 345.695 53.8076 346.282 54.0689C346.869 54.3303 347.557 54.0663 347.818 53.4793Z" fill="#222222"/>
<path d="M326.127 44.9895L331.164 29.4878C331.363 28.8768 331.028 28.2204 330.417 28.0219C329.806 27.8233 329.15 28.1577 328.951 28.7688L323.914 44.2705C323.716 44.8816 324.05 45.5379 324.661 45.7365C325.272 45.935 325.929 45.6006 326.127 44.9895Z" fill="#222222"/>
<path d="M303.659 38.8239L307.048 22.8807C307.181 22.2522 306.78 21.6344 306.152 21.5008C305.523 21.3672 304.905 21.7684 304.772 22.3969L301.383 38.3401C301.249 38.9686 301.651 39.5864 302.279 39.72C302.908 39.8536 303.525 39.4524 303.659 38.8239Z" fill="#222222"/>
<path d="M280.682 35.0257L282.385 18.8156C282.452 18.1766 281.989 17.6041 281.35 17.5369C280.711 17.4698 280.138 17.9333 280.071 18.5724L278.367 34.7825C278.3 35.4215 278.764 35.9939 279.403 36.0611C280.042 36.1283 280.614 35.6647 280.682 35.0257Z" fill="#222222"/>
</g>
<defs>
<clipPath id="clip0_5_2">
<rect width="480" height="480" fill="white" transform="translate(16 16.2)"/>
</clipPath>
</defs>
</svg>
